<?xml version="1.0" encoding="UTF-8" standalone="no"?>
<svg
   viewBox="0 0 200 200"
   version="1.1"
   id="svg4"
   sodipodi:docname="logo.svg"
   inkscape:version="1.3.2 (091e20ef0f, 2023-11-25, custom)"
   xmlns:inkscape="http://www.inkscape.org/namespaces/inkscape"
   xmlns:sodipodi="http://sodipodi.sourceforge.net/DTD/sodipodi-0.dtd"
   xmlns="http://www.w3.org/2000/svg"
   xmlns:svg="http://www.w3.org/2000/svg">
  <defs
     id="defs4" />
  <sodipodi:namedview
     id="namedview4"
     pagecolor="#ffffff"
     bordercolor="#000000"
     borderopacity="0.25"
     inkscape:showpageshadow="2"
     inkscape:pageopacity="0.0"
     inkscape:pagecheckerboard="0"
     inkscape:deskcolor="#d1d1d1"
     inkscape:zoom="3.959798"
     inkscape:cx="139.90613"
     inkscape:cy="97.984796"
     inkscape:window-width="1920"
     inkscape:window-height="1043"
     inkscape:window-x="3840"
     inkscape:window-y="0"
     inkscape:window-maximized="1"
     inkscape:current-layer="g1" />
  <!-- Background circle (nucleus) -->
  <circle
     cx="100"
     cy="100"
     r="90"
     fill="#f0f0f0"
     id="circle1" />
  <!-- Electron orbits -->
  <ellipse
     cx="100"
     cy="100"
     rx="85"
     ry="30"
     fill="none"
     stroke="#3498db"
     stroke-width="2"
     id="ellipse1" />
  <ellipse
     cx="-10.007508"
     cy="-141.12312"
     rx="85"
     ry="30"
     fill="none"
     stroke="#3498db"
     stroke-width="2"
     id="ellipse1-3"
     transform="rotate(139.26991)" />
  <ellipse
     cx="140.77553"
     cy="11.71957"
     rx="85"
     ry="30"
     fill="none"
     stroke="#3498db"
     stroke-width="2"
     id="ellipse1-3-6"
     transform="rotate(40.399675)" />
  <ellipse
     cx="100"
     cy="100"
     rx="30"
     ry="85"
     fill="none"
     stroke="#3498db"
     stroke-width="2"
     id="ellipse2" />
  <!-- Spartan helmet - main shape -->
  <g
     transform="translate(75.000000,150.000000) scale(0.0150000,-0.0150000)"
     fill="#2c3e50"
     stroke="none"
     id="g1">
    <path
       d="m 1675.3906,8777.0833 c -7,0 -68.1094,-59.9011 -137.1093,-131.901 -69,-72.9999 -223.922,-235.9793 -344.9219,-361.9792 C 1071.3595,8156.2033 944.37496,8023.1979 909.375,7986.1979 l -63.02083,-66.0156 126.95312,-249.0886 c 69.99991,-135.9998 153.02611,-296.9427 185.02601,-357.9427 32,-59.9999 101.0365,-196.0417 154.0365,-301.0416 120.9999,-240.9998 122.9947,-269.9688 27.9948,-317.9688 -60,-30.9999 -93.0677,-61.9896 -86.0677,-80.9896 4,-8 10.0625,-14.9739 14.0625,-14.9739 5,0 25.0104,-14.9844 44.0104,-33.9844 42.9999,-40 47.9322,-81.0209 13.9323,-113.0208 -17,-16 -45.9688,-24.073 -117.9688,-33.0729 C 761.33379,6365.099 321.36951,6138.1924 37.369792,5814.1927 -164.63001,5583.1929 -311.6251,5304.1767 -415.625,4948.1771 c -35.99996,-122.9999 -85.00014,-193.0887 -225,-324.0886 l -42.05729,-38.9323 2.99479,-426.0416 4.03646,-425.9115 33.98437,-120.0521 32.94271,-120.052 5.07813,-304.948 c 7.99999,-621.9993 -53.03659,-1066.0471 -179.03646,-1298.0468 l -39.97396,-72.9167 36.97917,-47.0052 c 20.99998,-26 87.95839,-108.0313 148.95833,-182.0313 60.99994,-73.9999 293.10439,-357.9481 515.10417,-629.94788 221.99977,-271.99972 432.92191,-531.00004 469.92187,-575 73.99993,-88.99991 447.021,-547.08353 613.02083,-752.08333 27.99998,-34.99996 52.94788,-60.9427 54.94788,-57.94271 6,5 5.1094,39.94864 -12.8906,754.94792 -57.99992,2254.9978 -53.04688,2102.0782 -73.04686,2130.0781 -19.99998,28 -68.00574,52.9378 -597.00521,310.9375 -202.99979,98.9999 -380.010427,189.9532 -394.010413,201.9531 -49.999947,47 -52.052077,63.0577 -45.052087,392.0573 7.999996,340.9997 10.125071,352.0001 78.125003,375 33.9999661,11 43.916822,7.9323 197.916667,-61.0677 393.99961,-173.9998 751.99513,-291.9063 1077.9948,-353.9062 144.9998,-27 179.9688,-44.0157 192.9687,-91.0156 6,-20 -9.9167,-196.0629 -47.9166,-539.0625 -30,-280.9998 -65.0834,-600.9377 -77.0834,-710.9375 l -22.0052,-201.0417 185.0261,-207.9427 c 100.9999,-114.9999 189.0104,-210.0677 194.0104,-211.0677 6,-1 93.0105,92.9845 194.0104,208.9844 l 185.0261,211.0677 -22.0053,201.0416 c -11.9999,109.9999 -45.9531,429.8961 -76.9531,709.8959 -37.9999,346.9996 -54.0469,520.1041 -48.0469,540.1041 13,45 59.0366,68.9844 154.0365,83.9844 279.9997,41 718.0056,182.9793 1122.0052,361.9792 155.9999,68.9999 159.9219,71.0312 194.9219,57.0312 66.9999,-25 69.0417,-38.0107 76.0416,-369.0104 3,-178.9998 1.9636,-308.0365 -4.0364,-329.0365 -15,-53.9999 -58.0001,-89.0104 -175,-144.0104 -124.9999,-59.9999 -539.0106,-262.0417 -719.0104,-351.0416 -70,-35 -127.9323,-70.9376 -138.9323,-85.9375 -17,-23 -19.9948,-116.0013 -52.9948,-1375 -19,-741.99931 -33.0313,-1386.03134 -32.0313,-1432.03129 l 2.9948,-82.03125 250,307.03125 c 137.9999,167.999833 277.0261,338.99483 310.0261,377.99479 32.9999,39.99996 104.9375,127.96361 160.9375,195.96354 54.9999,67.99993 323.0523,396.03678 595.0521,729.03646 271.9997,331.9997 500.0312,611.9636 507.0312,620.9635 10,15 5.9166,29.0157 -27.0833,91.0157 -126.9999,235.9997 -187.9063,683.0735 -178.9063,1308.0729 l 4.9479,294.9219 32.9427,120.052 34.1146,120.0521 2.9948,425 3.9063,425 -88.0209,86.9792 c -114.9998,112.9999 -145.9167,166.9741 -197.9166,339.9739 -73,238.9998 -156.0783,417.995 -280.0782,602.9948 -299.9997,447.9996 -778.0005,738.948 -1324.9999,804.948 -107.9999,13.9999 -139.974,33.0729 -139.974,83.0729 0,23 12.0417,40.9531 51.0417,76.9531 l 51.0416,47.0052 -27.0833,25 c -15,14 -46.9636,35.0052 -70.9635,47.0052 -85,43 -85.0468,80.0366 1.9531,254.0365 36.9999,71.9999 162.9897,319.9117 280.9896,550.9114 l 215.1041,418.099 -52.9948,56.901 c -70.9999,74 -243.0107,252.1045 -519.0104,540.1042 -123.9999,127.9999 -229.0729,240.0052 -233.0729,247.0052 -4,8 -12.9219,13.8906 -19.9219,12.8906 z"
       style="stroke:#000000"
       id="path4" />
  </g>
  <!-- Text -->
  <text
     x="100"
     y="180"
     font-family="Arial, sans-serif"
     font-size="22"
     fill="#2c3e50"
     text-anchor="middle"
     font-weight="bold"
     id="text4">ACHILLES</text>
</svg>
